<svg width="30" height="17" viewBox="0 0 30 17" fill="none" xmlns="http://www.w3.org/2000/svg">
<path d="M29.8188 7.85365C26.9943 3.16935 21.4026 0 15 0C8.59738 0 3.00414 3.17156 0.181222 7.85409C0.0620768 8.05442 0 8.27575 0 8.50022C0 8.72469 0.0620768 8.94602 0.181222 9.14635C3.00571 13.8307 8.59738 17 15 17C21.4026 17 26.9959 13.8284 29.8188 9.14591C29.9379 8.94558 30 8.72425 30 8.49978C30 8.2753 29.9379 8.05398 29.8188 7.85365ZM15 14.875C13.5166 14.875 12.0666 14.5011 10.8332 13.8006C9.59984 13.1001 8.63855 12.1045 8.07089 10.9396C7.50323 9.77473 7.35471 8.49293 7.6441 7.2563C7.93349 6.01967 8.64779 4.88375 9.69669 3.99219C10.7456 3.10063 12.082 2.49347 13.5368 2.24749C14.9917 2.00151 16.4997 2.12776 17.8701 2.61027C19.2406 3.09278 20.4119 3.90988 21.236 4.95824C22.0601 6.0066 22.5 7.23914 22.5 8.5C22.5005 9.33729 22.3068 10.1665 21.9301 10.9401C21.5533 11.7137 21.0009 12.4167 20.3044 13.0087C19.6078 13.6008 18.7809 14.0703 17.8707 14.3906C16.9605 14.7108 15.9851 14.8754 15 14.875ZM15 4.25C14.5537 4.2553 14.1103 4.31174 13.6818 4.41779C14.035 4.82582 14.2045 5.32794 14.1596 5.8331C14.1146 6.33826 13.8582 6.81299 13.4367 7.17121C13.0153 7.52943 12.4568 7.74741 11.8625 7.78563C11.2682 7.82384 10.6774 7.67976 10.1974 7.37951C9.92404 8.23552 9.97338 9.14285 10.3385 9.97378C10.7036 10.8047 11.366 11.5174 12.2326 12.0115C13.0992 12.5057 14.1263 12.7564 15.1693 12.7284C16.2123 12.7004 17.2187 12.3951 18.0468 11.8554C18.875 11.3158 19.4832 10.569 19.7859 9.7201C20.0885 8.87124 20.0704 7.96307 19.734 7.12343C19.3976 6.28379 18.76 5.55494 17.9108 5.03949C17.0615 4.52403 16.0435 4.24791 15 4.25Z" fill="#252525"/>
</svg>
