<svg width="25" height="25" viewBox="0 0 25 25" fill="none" xmlns="http://www.w3.org/2000/svg">
<path d="M12.1094 0C5.41992 0 0 5.41992 0 12.1094C0 18.7988 5.41992 24.2188 12.1094 24.2188C18.7988 24.2188 24.2188 18.7988 24.2188 12.1094C24.2188 5.41992 18.7988 0 12.1094 0ZM4.41406 8.57422C4.74121 7.71484 5.71777 7.27051 6.60645 7.50488L6.95312 7.59766L7.05078 7.25098C7.29492 6.36719 8.16406 5.74219 9.07715 5.88867C10.1221 6.05469 10.7568 7.07031 10.4834 8.06152L9.53613 11.4746C9.47754 11.6943 9.24805 11.8262 9.02344 11.7676L5.5957 10.8789C4.59961 10.6152 4.03809 9.56055 4.41406 8.57422ZM12.1094 20.7031C9.15039 20.7031 5.54199 18.833 5.08789 16.1475C4.99023 15.5713 5.53711 15.0977 6.09863 15.2734C7.57324 15.7471 9.76562 16.0156 12.1094 16.0156C14.4531 16.0156 16.6455 15.7471 18.1201 15.2734C18.6768 15.0977 19.2236 15.5713 19.1309 16.1475C18.6768 18.833 15.0684 20.7031 12.1094 20.7031ZM18.623 10.874L15.1953 11.7627C14.9756 11.8213 14.7461 11.6895 14.6826 11.4697L13.7354 8.05664C13.4619 7.06543 14.0967 6.0498 15.1416 5.88379C16.0498 5.7373 16.9189 6.3623 17.168 7.24609L17.2656 7.59277L17.6123 7.5C18.501 7.27051 19.4775 7.70996 19.8047 8.56934C20.1807 9.56055 19.6191 10.6152 18.623 10.874Z" fill="#919191"/>
</svg>
