<svg width="25" height="25" viewBox="0 0 25 25" fill="none" xmlns="http://www.w3.org/2000/svg">
<path d="M24.4678 19.2627C24.0771 18.2471 22.9297 17.7246 21.875 17.998L21.4648 18.1055L21.3525 17.6953C21.0645 16.6504 20.0342 15.9131 18.96 16.084C17.7295 16.2793 16.9775 17.4805 17.2998 18.6523L18.418 22.6855C18.4912 22.9443 18.7598 23.1006 19.0234 23.0322L23.0762 21.9824C24.2529 21.6748 24.917 20.4297 24.4678 19.2627ZM15.7959 19.0674C15.5225 18.0762 15.6836 17.0166 16.2354 16.1523C17.6855 13.8916 21.0547 13.9307 22.4756 16.3623C22.7881 16.3672 23.0908 16.4307 23.3838 16.5039C23.916 15.1416 24.2188 13.6621 24.2188 12.1094C24.2188 5.41992 18.7988 0 12.1094 0C5.41992 0 0 5.41992 0 12.1094C0 18.7988 5.41992 24.2188 12.1094 24.2188C13.8379 24.2188 15.4736 23.8525 16.9629 23.1982C16.9482 23.1641 15.7959 19.0674 15.7959 19.0674ZM8.20312 11.3281C7.33887 11.3281 6.64062 10.6299 6.64062 9.76562C6.64062 8.90137 7.33887 8.20312 8.20312 8.20312C9.06738 8.20312 9.76562 8.90137 9.76562 9.76562C9.76562 10.6299 9.06738 11.3281 8.20312 11.3281ZM14.0625 18.9453C14.0625 19.8828 12.6611 20.9717 10.5713 21.0938C10.1562 21.1328 9.98047 20.5176 10.3955 20.3418L11.2256 19.9902C11.8604 19.7217 12.2412 19.3311 12.2412 18.9404C12.2412 18.5498 11.8604 18.1592 11.2256 17.8906L10.3955 17.5391C10.1025 17.417 10.1172 16.9385 10.3955 16.8164L11.2256 16.4648C11.8604 16.1963 12.2412 15.8057 12.2412 15.415C12.2412 15.0244 11.8604 14.6338 11.2256 14.3652L10.3955 14.0137C9.96582 13.833 10.1709 13.2031 10.5713 13.2617C12.6611 13.3838 14.0625 14.4727 14.0625 15.4102C14.0625 16.0449 13.4082 16.7432 12.3438 17.168C13.4082 17.6123 14.0625 18.3105 14.0625 18.9453ZM14.8438 10.2051C14.4385 10.5664 13.7891 10.2246 13.877 9.67773C14.0723 8.44727 15.5469 7.62207 16.8018 7.62207C18.0566 7.62207 19.5312 8.44727 19.7266 9.67773C19.8096 10.2197 19.1748 10.5713 18.7598 10.2051L18.2959 9.79004C17.5732 9.14551 16.04 9.14551 15.3174 9.79004L14.8438 10.2051Z" fill="black"/>
</svg>
