<svg width="18" height="17" viewBox="0 0 18 17" fill="none" xmlns="http://www.w3.org/2000/svg">
<path d="M17.4375 13.3571H5.625V12.75C5.625 12.4161 5.37187 12.1429 5.0625 12.1429H3.9375C3.62812 12.1429 3.375 12.4161 3.375 12.75V13.3571H0.5625C0.253125 13.3571 0 13.6304 0 13.9643V15.1786C0 15.5125 0.253125 15.7857 0.5625 15.7857H3.375V16.3929C3.375 16.7268 3.62812 17 3.9375 17H5.0625C5.37187 17 5.625 16.7268 5.625 16.3929V15.7857H17.4375C17.7469 15.7857 18 15.5125 18 15.1786V13.9643C18 13.6304 17.7469 13.3571 17.4375 13.3571ZM17.4375 7.28571H14.625V6.67857C14.625 6.34464 14.3719 6.07143 14.0625 6.07143H12.9375C12.6281 6.07143 12.375 6.34464 12.375 6.67857V7.28571H0.5625C0.253125 7.28571 0 7.55893 0 7.89286V9.10714C0 9.44107 0.253125 9.71429 0.5625 9.71429H12.375V10.3214C12.375 10.6554 12.6281 10.9286 12.9375 10.9286H14.0625C14.3719 10.9286 14.625 10.6554 14.625 10.3214V9.71429H17.4375C17.7469 9.71429 18 9.44107 18 9.10714V7.89286C18 7.55893 17.7469 7.28571 17.4375 7.28571ZM17.4375 1.21429H10.125V0.607143C10.125 0.273214 9.87187 0 9.5625 0H8.4375C8.12813 0 7.875 0.273214 7.875 0.607143V1.21429H0.5625C0.253125 1.21429 0 1.4875 0 1.82143V3.03571C0 3.36964 0.253125 3.64286 0.5625 3.64286H7.875V4.25C7.875 4.58393 8.12813 4.85714 8.4375 4.85714H9.5625C9.87187 4.85714 10.125 4.58393 10.125 4.25V3.64286H17.4375C17.7469 3.64286 18 3.36964 18 3.03571V1.82143C18 1.4875 17.7469 1.21429 17.4375 1.21429Z" fill="black"/>
</svg>
