<svg width="25" height="19" viewBox="0 0 25 19" fill="none" xmlns="http://www.w3.org/2000/svg">
<path d="M24.5264 6.27396C24.7168 6.12057 25 6.26406 25 6.50651V16.625C25 17.9362 23.9502 19 22.6562 19H2.34375C1.0498 19 0 17.9362 0 16.625V6.51146C0 6.26406 0.27832 6.12552 0.473633 6.27891C1.56738 7.13984 3.01758 8.23333 7.99805 11.8997C9.02832 12.6617 10.7666 14.2648 12.5 14.2549C14.2432 14.2698 16.0156 12.632 17.0068 11.8997C21.9873 8.23333 23.4326 7.1349 24.5264 6.27396ZM12.5 12.6667C13.6328 12.6865 15.2637 11.2219 16.084 10.6182C22.5635 5.85339 23.0566 5.43776 24.5508 4.25026C24.834 4.0276 25 3.68125 25 3.3151V2.375C25 1.0638 23.9502 0 22.6562 0H2.34375C1.0498 0 0 1.0638 0 2.375V3.3151C0 3.68125 0.166016 4.02266 0.449219 4.25026C1.94336 5.43281 2.43652 5.85339 8.91602 10.6182C9.73633 11.2219 11.3672 12.6865 12.5 12.6667Z" fill="black"/>
</svg>
