<svg width="294" height="300" viewBox="0 0 294 300" fill="none" xmlns="http://www.w3.org/2000/svg">
<path d="M147 0L174.67 28.7677L212.083 14.8547L224.531 52.7793L264.275 56.4765L259.035 96.0466L293.239 116.622L271.35 150L293.239 183.378L259.035 203.953L264.275 243.523L224.531 247.221L212.083 285.145L174.67 271.232L147 300L119.33 271.232L81.9174 285.145L69.469 247.221L29.7253 243.523L34.9645 203.953L0.760818 183.378L22.65 150L0.760818 116.622L34.9645 96.0466L29.7253 56.4765L69.469 52.7793L81.9174 14.8547L119.33 28.7677L147 0Z" fill="#D9D9D9"/>
</svg>
