<svg xmlns="http://www.w3.org/2000/svg" xmlns:xlink="http://www.w3.org/1999/xlink" version="1.1" width="1000" height="1000" viewBox="0 0 1000 1000" xml:space="preserve">
<desc>Created with Fabric.js 3.5.0</desc>
<defs>
</defs>
<rect x="0" y="0" width="100%" height="100%" fill="#ffffff"/>
<g transform="matrix(6.4835 0 0 6.4835 505.7542 494.2427)" id="395724">
<rect style="stroke: none; stroke-width: 1; stroke-dasharray: none; stroke-linecap: butt; stroke-dashoffset: 0; stroke-linejoin: miter; stroke-miterlimit: 4; is-custom-font: none; font-file-url: none; fill: rgb(217,217,217); fill-rule: nonzero; opacity: 1;" vector-effect="non-scaling-stroke" x="-80" y="-80" rx="5" ry="5" width="160" height="160"/>
</g>
<g transform="matrix(4.7017 0 0 4.7017 506.8753 477.4876)" id="160943">
<path style="stroke: none; stroke-width: 1; stroke-dasharray: none; stroke-linecap: butt; stroke-dashoffset: 0; stroke-linejoin: miter; stroke-miterlimit: 4; is-custom-font: none; font-file-url: none; fill: rgb(145,145,145); fill-rule: nonzero; opacity: 1;" vector-effect="non-scaling-stroke" transform=" translate(-44.5, -44.5)" d="M 44.5 50.0625 C 58.3193 50.0625 69.5312 38.8506 69.5312 25.0312 C 69.5312 11.2119 58.3193 0 44.5 0 C 30.6807 0 19.4688 11.2119 19.4688 25.0312 C 19.4688 38.8506 30.6807 50.0625 44.5 50.0625 Z M 66.75 55.625 H 57.1721 C 53.3131 57.398 49.0195 58.4062 44.5 58.4062 C 39.9805 58.4062 35.7043 57.398 31.8279 55.625 H 22.25 C 9.96035 55.625 0 65.5854 0 77.875 V 80.6562 C 0 85.2627 3.7373 89 8.34375 89 H 80.6562 C 85.2627 89 89 85.2627 89 80.6562 V 77.875 C 89 65.5854 79.0396 55.625 66.75 55.625 Z" stroke-linecap="round"/>
</g>
</svg>